<?xml version="1.0" encoding="utf-8"?>
<!-- Generator: Adobe Illustrator 15.0.0, SVG Export Plug-In . SVG Version: 6.00 Build 0)  -->
<!DOCTYPE svg PUBLIC "-//W3C//DTD SVG 1.1//EN" "http://www.w3.org/Graphics/SVG/1.1/DTD/svg11.dtd">
<svg version="1.1" xmlns="http://www.w3.org/2000/svg" xmlns:xlink="http://www.w3.org/1999/xlink" x="0px" y="0px" width="300px"
	 height="91px" viewBox="0 0 300 91" enable-background="new 0 0 300 91" xml:space="preserve">
<g id="Layer_1">
	<rect x="0.018" y="0.026" fill="#37A5DD" width="298.755" height="91"/>
	<rect x="169.839" fill="#035384" width="130.169" height="91"/>
	<g enable-background="new    ">
		<path fill="#F2F2F2" d="M65.336,27.865L54.223,64.693L43.584,37.499L33.476,64.696l-12.347-36.83h8.705l5.596,17.865l5.12-13.902
			l-1.327-3.965h9.254l6.447,17.865l5.121-17.865H65.336z"/>
		<path fill="#F2F2F2" d="M73.245,52.425c0.114,1.366,0.581,3.092,1.403,5.179c0.823,2.086,2.319,3.181,4.495,3.28
			c2.655,0,4.735-0.338,6.24-1.014c1.503-0.679,2.484-1.244,2.939-1.699l-1.1,4.495c0,0.265-0.752,0.617-2.256,1.053
			c-1.504,0.437-3.42,0.654-5.747,0.654c-0.924,0-1.645-0.025-2.162-0.075c-3.767-0.278-6.528-1.363-8.278-3.254
			c-1.751-1.891-2.646-4.921-2.684-9.094c0-4.779,0.996-8.281,2.988-10.506s4.909-3.356,8.751-3.396
			c4.615,0,7.744,1.214,9.388,3.642c1.403,2.011,2.105,4.729,2.105,8.154c0,0.646-0.019,1.191-0.057,1.642
			c-0.038,0.448-0.07,0.761-0.094,0.938H73.245V52.425z M78.535,41.313c-3.527,0.113-5.292,2.675-5.292,7.682h11.265
			C84.51,43.873,82.518,41.313,78.535,41.313z"/>
		<path fill="#F2F2F2" d="M108.368,27.865c4.651,0,7.951,1.588,9.9,4.759c1.945,3.175,2.92,7.6,2.92,13.276
			c0,4.083-0.436,7.462-1.302,10.135c-0.866,2.674-2.256,4.683-4.172,6.021s-4.416,2.011-7.501,2.011H92.36V27.865H108.368z
			 M114.492,45.902c-0.024-2.857-0.246-5.254-0.664-7.189c-0.416-1.936-1.252-3.474-2.502-4.617
			c-1.251-1.146-3.065-1.717-5.442-1.717h-5.292v27.177h5.917c3.123,0,5.233-1.139,6.332-3.414
			C113.939,53.867,114.492,50.453,114.492,45.902z"/>
		<path fill="#F2F2F2" d="M127.864,27.792c1.29,0,2.297,0.405,3.025,1.213c0.727,0.81,1.091,1.775,1.091,2.9
			c0,1.152-0.369,2.138-1.109,2.96c-0.742,0.822-1.767,1.233-3.082,1.233c-1.264,0-2.27-0.414-3.017-1.244
			c-0.747-0.829-1.118-1.786-1.118-2.872c0-1.113,0.373-2.09,1.118-2.931C125.519,28.211,126.548,27.792,127.864,27.792z
			 M124.203,64.068V38.203h7.225v25.865H124.203z"/>
		<path fill="#F2F2F2" d="M144.551,69.815c3.993,0,5.992-1.188,5.992-3.564v-3.337c-1.846,0.924-4.104,1.385-6.771,1.385
			c-1.947-0.077-3.607-0.395-4.978-0.958c-1.372-0.563-2.541-1.814-3.509-3.757c-0.967-1.939-1.451-4.795-1.451-8.562
			c0.101-3.895,0.721-6.792,1.859-8.693c1.136-1.903,2.423-3.093,3.858-3.567c1.435-0.474,3.075-0.71,4.92-0.71
			c1.025,0.05,1.964,0.222,2.818,0.511c0.853,0.292,1.614,0.613,2.285,0.967c0.644,0.342,0.967,0.521,0.967,0.533v-1.859h7.225
			v26.87c0,5.249-3.863,7.941-11.588,8.08c-2.768,0-5.053-0.234-6.854-0.702c-1.803-0.467-2.83-0.827-3.082-1.08l-0.55-4.041
			c0.568,0.381,1.65,0.866,3.243,1.461C140.532,69.387,142.401,69.727,144.551,69.815z M150.545,43.721
			c0-0.139-0.436-0.478-1.31-1.015c-0.872-0.537-1.858-0.899-2.958-1.092c-1.643,0-2.95,0.338-3.916,1.017
			c-0.967,0.677-1.657,1.7-2.067,3.072c-0.41,1.372-0.647,3.196-0.711,5.472c0,3.071,0.45,5.472,1.346,7.195
			c0.898,1.726,2.599,2.59,5.103,2.59c1.327-0.089,2.357-0.308,3.09-0.654c0.735-0.347,1.207-0.621,1.423-0.824V43.721z"/>
		<path fill="#F2F2F2" d="M188.528,32.379h-9.937v-4.514h28.105v4.514h-9.938v31.689h-8.231V32.379z"/>
		<path fill="#F2F2F2" d="M215.099,52.425c0.113,1.366,0.581,3.092,1.402,5.179c0.822,2.086,2.321,3.181,4.495,3.28
			c2.656,0,4.735-0.338,6.239-1.014c1.505-0.679,2.484-1.244,2.94-1.699l-1.102,4.495c0,0.265-0.752,0.617-2.256,1.053
			c-1.504,0.437-3.418,0.654-5.746,0.654c-0.923,0-1.644-0.025-2.162-0.075c-3.768-0.278-6.528-1.363-8.277-3.254
			c-1.754-1.891-2.646-4.921-2.684-9.094c0-4.779,0.995-8.281,2.987-10.506c1.99-2.225,4.907-3.356,8.753-3.396
			c4.615,0,7.744,1.214,9.387,3.642c1.403,2.011,2.106,4.729,2.106,8.154c0,0.646-0.021,1.191-0.056,1.642
			c-0.038,0.448-0.07,0.761-0.097,0.938h-15.932V52.425z M220.39,41.313c-3.528,0.113-5.291,2.675-5.291,7.682h11.267
			C226.363,43.873,224.371,41.313,220.39,41.313z"/>
		<path fill="#F2F2F2" d="M253.483,62.989c0,0.104-0.73,0.304-2.189,0.607s-3.324,0.486-5.585,0.55c-3.161,0-5.664-0.443-7.51-1.325
			c-1.847-0.887-3.179-2.33-3.993-4.334c-0.813-2.004-1.224-4.751-1.224-8.24c0.103-2.781,0.548-5.056,1.338-6.828
			c0.789-1.772,2.046-3.094,3.773-3.973c1.726-0.879,4.029-1.319,6.911-1.319c1.833,0.038,3.48,0.196,4.941,0.474
			c1.461,0.278,2.505,0.506,3.139,0.682l0.775,3.736c-0.467-0.241-1.325-0.538-2.578-0.892c-1.252-0.354-2.826-0.549-4.723-0.589
			c-2.49,0-4.147,0.823-4.97,2.468c-0.822,1.643-1.233,3.722-1.233,6.24c0,3.033,0.339,5.502,1.015,7.405
			c0.679,1.902,2.071,2.931,4.183,3.082c1.682,0,3.131-0.145,4.343-0.437c1.214-0.29,2.191-0.607,2.932-0.958
			c0.739-0.347,1.108-0.561,1.108-0.636L253.483,62.989z"/>
		<path fill="#F2F2F2" d="M256.195,64.068V27.865h7.301v11.967c0-0.012,0.292-0.177,0.875-0.493
			c0.605-0.316,1.404-0.607,2.396-0.872c0.992-0.264,2.179-0.403,3.556-0.417c1.935,0,3.528,0.288,4.778,0.863
			c1.252,0.575,2.156,1.324,2.713,2.248c0.555,0.922,0.833,1.902,0.833,2.939v19.971h-5.443V45.503c0-1.554-0.367-2.617-1.101-3.185
			c-0.733-0.569-1.971-0.854-3.717-0.854c-0.998,0.049-1.861,0.262-2.589,0.635c-0.727,0.373-1.293,0.764-1.697,1.176
			c-0.403,0.412-0.607,0.661-0.607,0.75v20.045h-7.298V64.068z"/>
	</g>
</g>
<g id="Layer_2">
</g>
</svg>
